<?xml version="1.0" encoding="utf-8"?>
<!-- Generator: Adobe Illustrator 23.0.3, SVG Export Plug-In . SVG Version: 6.00 Build 0)  -->
<svg version="1.1" id="Layer_1" xmlns="http://www.w3.org/2000/svg" xmlns:xlink="http://www.w3.org/1999/xlink" x="0px" y="0px"
	 viewBox="0 0 512 512" style="enable-background:new 0 0 512 512;" xml:space="preserve">
<style type="text/css">
	.st0{fill:url(#SVGID_1_);}
	.st1{fill:#FFFFFF;}
</style>
<linearGradient id="SVGID_1_" gradientUnits="userSpaceOnUse" x1="2.945" y1="256" x2="509.055" y2="256">
	<stop  offset="0" style="stop-color:#00CCFF"/>
	<stop  offset="1" style="stop-color:#006E8A"/>
</linearGradient>
<circle class="st0" cx="256" cy="256" r="253.1"/>
<g id="Outline">
	<g>
		<circle class="st1" cx="116" cy="116" r="5.6"/>
		<circle class="st1" cx="138.4" cy="116" r="5.6"/>
		<circle class="st1" cx="160.8" cy="116" r="5.6"/>
		<path class="st1" d="M211.2,110.4c-3.1,0-5.6,2.5-5.6,5.6s2.5,5.6,5.6,5.6h50.4c3.1,0,5.6-2.5,5.6-5.6s-2.5-5.6-5.6-5.6H211.2z"/>
		<path class="st1" d="M295.2,110.4c-3.1,0-5.6,2.5-5.6,5.6s2.5,5.6,5.6,5.6h84c3.1,0,5.6-2.5,5.6-5.6s-2.5-5.6-5.6-5.6H295.2z"/>
		<path class="st1" d="M418.4,278.4c-3.1,0-5.6,2.5-5.6,5.6v128.8H99.2V211.2c0-3.1-2.5-5.6-5.6-5.6s-5.6,2.5-5.6,5.6v207.2
			c0,3.1,2.5,5.6,5.6,5.6h324.8c3.1,0,5.6-2.5,5.6-5.6V284C424,280.9,421.5,278.4,418.4,278.4z"/>
		<path class="st1" d="M418.4,88H93.6c-3.1,0-5.6,2.5-5.6,5.6v95.2c0,3.1,2.5,5.6,5.6,5.6s5.6-2.5,5.6-5.6V144H396
			c3.1,0,5.6-2.5,5.6-5.6c0-3.1-2.5-5.6-5.6-5.6H188.8V99.2h224v134.4H213c-3.1,0-5.6,2.5-5.6,5.6s2.5,5.6,5.6,5.6h199.8v16.8
			c0,3.1,2.5,5.6,5.6,5.6c3.1,0,5.6-2.5,5.6-5.6v-168C424,90.5,421.5,88,418.4,88z M177.6,132.8H99.2V99.2h78.4V132.8z"/>
		<path class="st1" d="M136.2,262.9L136.2,262.9c12,5.7,25.9,5.7,37.9,0l0,0c22.4-10.5,32-37.2,21.5-59.6
			c-10.5-22.4-37.2-32-59.6-21.5c-22.4,10.5-32,37.2-21.5,59.6c4.4,9.5,12.1,17.1,21.5,21.5H136.2z M155.2,233.6
			c-6.2,0-11.2-5-11.2-11.2c0-6.2,5-11.2,11.2-11.2s11.2,5,11.2,11.2C166.4,228.6,161.4,233.6,155.2,233.6z M144,254v-3.6
			c0-3.1,2.5-5.6,5.6-5.6h11.2c3.1,0,5.6,2.5,5.6,5.6v3.6C159.2,256.7,151.2,256.7,144,254z M155.2,188.8
			c18.6-0.1,33.7,14.8,33.8,33.4c0.1,9.8-4.1,19.1-11.4,25.5c-0.6-3.9-2.6-7.5-5.6-10.1c8.5-9,8-23.2-1-31.7c-9-8.5-23.2-8-31.7,1
			c-8.1,8.6-8.1,22,0,30.6c-3,2.6-5,6.2-5.6,10.1c-14-12.2-15.3-33.5-3.1-47.4C136.8,193.1,145.8,189,155.2,188.8z"/>
		<path class="st1" d="M233.6,172h5.6c3.1,0,5.6-2.5,5.6-5.6c0-3.1-2.5-5.6-5.6-5.6h-5.6c-9.3,0-16.8,7.5-16.8,16.8v5.6h-5.6
			c-3.1,0-5.6,2.5-5.6,5.6s2.5,5.6,5.6,5.6h5.6v16.8c0,3.1,2.5,5.6,5.6,5.6c3.1,0,5.6-2.5,5.6-5.6v-16.8h5.6c3.1,0,5.6-2.5,5.6-5.6
			s-2.5-5.6-5.6-5.6H228v-5.6C228,174.5,230.5,172,233.6,172z"/>
		<path class="st1" d="M295.2,216.8c9.3,0,16.8-7.5,16.8-16.8v-22.4c0-9.3-7.5-16.8-16.8-16.8h-22.4c-9.3,0-16.8,7.5-16.8,16.8V200
			c0,9.3,7.5,16.8,16.8,16.8H295.2z M267.2,200v-22.4c0-3.1,2.5-5.6,5.6-5.6h22.4c3.1,0,5.6,2.5,5.6,5.6V200c0,3.1-2.5,5.6-5.6,5.6
			h-22.4C269.7,205.6,267.2,203.1,267.2,200z"/>
		<circle class="st1" cx="284" cy="188.8" r="5.6"/>
		<path class="st1" d="M359.5,216.8c1.5,0,2.9-0.6,4-1.6l22-22c7.4-7.4,7.4-19.4,0-26.8c-7.2-6.9-18.4-7.2-26-0.8
			c-8-6.8-20-5.8-26.8,2.3c-6.3,7.4-5.9,18.3,0.8,25.3l22,22C356.6,216.2,358.1,216.8,359.5,216.8z M339.2,179.7
			c0-2.1,0.8-4.1,2.3-5.6c1.5-1.5,3.5-2.3,5.6-2.3c2.1,0,4.1,0.8,5.6,2.2l3.1,3.2c2.2,2.2,5.7,2.2,7.9,0c0,0,0,0,0,0l3.1-3.1
			c3.1-3.1,8.1-3.1,11.2,0c1.5,1.5,2.3,3.5,2.2,5.6c0,2.1-0.8,4.1-2.2,5.6L360,203.4l-18-18.1C340.3,183.9,339.3,181.9,339.2,179.7
			L339.2,179.7z"/>
		<path class="st1" d="M110.4,312c0,3.1,2.5,5.6,5.6,5.6h78.4c3.1,0,5.6-2.5,5.6-5.6v-22.4c0-3.1-2.5-5.6-5.6-5.6H116
			c-3.1,0-5.6,2.5-5.6,5.6V312z M121.6,295.2h67.2v11.2h-67.2V295.2z"/>
		<path class="st1" d="M116,340h78.4c3.1,0,5.6-2.5,5.6-5.6c0-3.1-2.5-5.6-5.6-5.6H116c-3.1,0-5.6,2.5-5.6,5.6
			C110.4,337.5,112.9,340,116,340z"/>
		<path class="st1" d="M116,362.4h78.4c3.1,0,5.6-2.5,5.6-5.6c0-3.1-2.5-5.6-5.6-5.6H116c-3.1,0-5.6,2.5-5.6,5.6
			C110.4,359.9,112.9,362.4,116,362.4z"/>
		<path class="st1" d="M116,384.8h78.4c3.1,0,5.6-2.5,5.6-5.6c0-3.1-2.5-5.6-5.6-5.6H116c-3.1,0-5.6,2.5-5.6,5.6
			C110.4,382.3,112.9,384.8,116,384.8z"/>
		<path class="st1" d="M239.2,278.4c-3.1,0-5.6,2.5-5.6,5.6s2.5,5.6,5.6,5.6h145.6c3.1,0,5.6-2.5,5.6-5.6v-22.4
			c0-3.1-2.5-5.6-5.6-5.6H239.2c-3.1,0-5.6,2.5-5.6,5.6c0,3.1,2.5,5.6,5.6,5.6h140v11.2H239.2z"/>
		<path class="st1" d="M239.2,351.2c-3.1,0-5.6,2.5-5.6,5.6v16.8c0,3.1,2.5,5.6,5.6,5.6h145.6c3.1,0,5.6-2.5,5.6-5.6v-67.2
			c0-3.1-2.5-5.6-5.6-5.6H239.2c-3.1,0-5.6,2.5-5.6,5.6v28c0,3.1,2.5,5.6,5.6,5.6s5.6-2.5,5.6-5.6V312h134.4v56h-30.1l-15.3-30.5
			c-1.4-2.8-4.8-3.8-7.5-2.4c-1,0.5-1.9,1.4-2.4,2.4l-6.2,12.4l-11.8-23.6c-1.4-2.8-4.8-3.8-7.5-2.4c-1,0.5-1.9,1.4-2.4,2.4
			L284,349.9l-6.2-12.4c-1.4-2.8-4.8-3.8-7.5-2.4c-1,0.5-1.9,1.4-2.4,2.4L252.5,368h-7.7v-11.2C244.8,353.7,242.3,351.2,239.2,351.2
			z M328.8,352.5l7.7,15.5h-9.9l-2.8-5.6L328.8,352.5z M300.8,341.3l13.3,26.7h-26.7L300.8,341.3z M272.8,352.5l4.9,9.9l-2.8,5.6
			h-9.9L272.8,352.5z"/>
		<circle class="st1" cx="351.2" cy="328.8" r="5.6"/>
		<path class="st1" d="M239.2,401.6h89.6c3.1,0,5.6-2.5,5.6-5.6s-2.5-5.6-5.6-5.6h-89.6c-3.1,0-5.6,2.5-5.6,5.6
			S236.1,401.6,239.2,401.6z"/>
		<path class="st1" d="M384.8,390.4h-22.4c-3.1,0-5.6,2.5-5.6,5.6s2.5,5.6,5.6,5.6h22.4c3.1,0,5.6-2.5,5.6-5.6
			S387.9,390.4,384.8,390.4z"/>
	</g>
</g>
</svg>
